<?xml version="1.0" encoding="utf-8"?>
<!-- Generator: Adobe Illustrator 19.2.0, SVG Export Plug-In . SVG Version: 6.00 Build 0)  -->
<svg version="1.1" id="Слой_1" xmlns="http://www.w3.org/2000/svg" xmlns:xlink="http://www.w3.org/1999/xlink" x="0px" y="0px"
	 viewBox="0 0 288 180" style="enable-background:new 0 0 288 180;" xml:space="preserve">
<style type="text/css">
	.st0{fill:#19191E;}
	.st1{fill:#D34C55;}
	.st2{fill:#BC4F4F;}
</style>
<g>
	<path class="st0" d="M0.2,0.2c96,0,192,0,288,0c0,60,0,119.9,0,180c-96,0-192,0-288,0C0.2,120.2,0.2,60.2,0.2,0.2z M194.4,125.6
		c0.3-0.2,0.5-0.4,0.6-0.6c0.6-0.7,1.2-1.3,1.8-2c0.2-0.2,0.4-0.3,0.7-0.1c0.2,0.2,0.4,0.3,0.6,0.5c2.8,2.4,5.5,4.7,8.3,7.1
		c0.3,0.2,0.5,0.5,0.9,0.6c6.1-21.1,0.9-50.9-24.4-69.5c-24.3-17.9-57.7-16.7-80.7,2.9c-23.5,20-26,48.8-20.8,66.3
		c0.4-0.1,0.6-0.4,0.9-0.6c2.3-1.7,4.5-3.4,6.8-5.1c0.4-0.3,0.8-0.5,1.4-0.4c1.6,0.1,3.3,0.2,4.9,0.3c0.7,0.1,1.1-0.1,1.6-0.6
		c1.5-1.5,3-3,4.5-4.6c0.8-0.8,0.7-0.8,1.5-0.1c1.7,1.3,3.5,2.7,5.2,4.1c0.4,0.3,0.8,0.5,1.3,0.5c1.6,0,3.1,0,4.7,0
		c0.6,0,0.9-0.2,1.2-0.7c0.8-1.2,1.6-2.3,2.3-3.5c0.3-0.4,0.5-0.5,0.9-0.2c0.6,0.5,1.3,0.9,2,1.4c0.6,0.4,0.6,0.4,1.1-0.2
		c1.9-2.5,3.9-4.9,5.8-7.4c0.5-0.6,1-1,1.8-1.1c1.5-0.3,2.9-0.8,4.4-1.1c0.8-0.2,1.4-0.6,1.9-1.2c1.5-1.7,3-3.3,4.5-4.9
		c0.3-0.4,0.7-0.6,1.2-0.8c1.9-0.7,3.8-1.3,5.8-2c0.8-0.3,0.8-0.3,1.3,0.4c1.3,1.9,2.6,3.9,3.9,5.8c0.3,0.5,0.7,0.8,1.2,1
		c0.9,0.3,1.9,0.7,2.8,1c0.6,0.2,1.2,0.6,1.7,1.1c3,3,6,5.9,9,8.9c0.4,0.4,0.8,0.6,1.4,0.4c1.7-0.6,3.4-1.1,5-1.6
		c0.5-0.2,1-0.4,1.4-0.7c1.2-0.9,2.4-1.9,3.5-2.8c0.7-0.5,0.7-0.5,1.3,0c2.4,2.1,4.8,4.1,7.2,6.2c0.5,0.4,0.9,1.2,1.6,1.1
		c0.6,0,1-0.8,1.4-1.2c0.4-0.3,0.8-1,1.2-1c0.5,0,0.8,0.7,1.1,1.2C192.8,123.4,193.6,124.5,194.4,125.6z"/>
	<path class="st1" d="M194.4,125.6c-0.8-1.1-1.6-2.2-2.4-3.2c-0.3-0.4-0.5-1.2-1.1-1.2c-0.4,0-0.8,0.6-1.2,1
		c-0.5,0.4-0.9,1.1-1.4,1.2c-0.6,0-1.1-0.7-1.6-1.1c-2.4-2.1-4.8-4.1-7.2-6.2c-0.6-0.5-0.6-0.5-1.3,0c-1.2,0.9-2.4,1.8-3.5,2.8
		c-0.4,0.3-0.9,0.6-1.4,0.7c-1.7,0.5-3.4,1.1-5,1.6c-0.6,0.2-1,0.1-1.4-0.4c-3-3-6-5.9-9-8.9c-0.5-0.5-1-0.8-1.7-1.1
		c-0.9-0.3-1.9-0.7-2.8-1c-0.5-0.2-0.9-0.5-1.2-1c-1.3-1.9-2.6-3.9-3.9-5.8c-0.5-0.7-0.5-0.7-1.3-0.4c-1.9,0.7-3.8,1.3-5.8,2
		c-0.5,0.2-0.9,0.4-1.2,0.8c-1.5,1.6-3,3.3-4.5,4.9c-0.5,0.6-1.1,1-1.9,1.2c-1.5,0.3-2.9,0.8-4.4,1.1c-0.8,0.2-1.3,0.5-1.8,1.1
		c-1.9,2.5-3.8,5-5.8,7.4c-0.5,0.6-0.5,0.6-1.1,0.2c-0.7-0.4-1.3-0.9-2-1.4c-0.4-0.3-0.6-0.2-0.9,0.2c-0.8,1.2-1.6,2.3-2.3,3.5
		c-0.3,0.5-0.6,0.7-1.2,0.7c-1.6,0-3.1,0-4.7,0c-0.5,0-0.9-0.2-1.3-0.5c-1.7-1.4-3.5-2.7-5.2-4.1c-0.8-0.7-0.7-0.7-1.5,0.1
		c-1.5,1.5-3,3-4.5,4.6c-0.5,0.5-0.9,0.6-1.6,0.6c-1.6-0.1-3.3-0.2-4.9-0.3c-0.5,0-1,0.1-1.4,0.4c-2.3,1.7-4.5,3.4-6.8,5.1
		c-0.3,0.2-0.5,0.5-0.9,0.6c-5.2-17.6-2.7-46.3,20.8-66.3c23-19.6,56.4-20.8,80.7-2.9c25.3,18.6,30.5,48.4,24.4,69.5
		c-0.4,0-0.6-0.4-0.9-0.6c-2.8-2.4-5.5-4.7-8.3-7.1c-0.2-0.2-0.4-0.3-0.6-0.5c-0.3-0.2-0.5-0.2-0.7,0.1c-0.6,0.7-1.2,1.3-1.8,2
		C194.9,125.2,194.7,125.4,194.4,125.6z M127.6,88.8c0.1-6.2-5.1-11.7-11.5-11.6c-6.3,0.1-11.6,4.7-11.6,11.5
		c0,6.8,5.2,11.6,11.6,11.6C122.5,100.4,127.7,94.9,127.6,88.8z"/>
	<path class="st2" d="M127.6,88.8c0.1,6.1-5.1,11.6-11.5,11.5c-6.4-0.1-11.6-4.8-11.6-11.6c0-6.8,5.3-11.5,11.6-11.5
		C122.5,77.2,127.7,82.7,127.6,88.8z"/>
</g>
</svg>
